PathFileType	4	(X/Y/Z)	/Users/itak/Documents/Research/Walk-IL/dataset/trc/00469_00167.trc
DataRate	CameraRate	NumFrames	NumMarkers	Units	OrigDataRate	OrigDataStartFrame	OrigNumFrames
100.000000	100.000000	4	53	mm	100.000000	471	628
Frame#	Time	RPSI			LPSI			L3			STRN			T10			C7			CLAV			RBAK			LBAK			LSHO			LUPA			LAEL			LAOL			LWTS			LWPS			LFRA			LIFD			LHPS			LHTS			RSHO			RUPA			RAEL			RAOL			RWTS			RWPS			RFRA			RIFD			RHTS			RHPS			RBHD			LFHD			RFHD			LBHD			LHIP			RHIP			RASI			LASI			LKNE			LTHI			LANK			LTIP			LTOE			LMT1			LMT5			LHEE			RKNE			RTHI			RANK			RTIP			RTOE			RMT1			RMT5			RHEE			
		X1	Y1	Z1	X2	Y2	Z2	X3	Y3	Z3	X4	Y4	Z4	X5	Y5	Z5	X6	Y6	Z6	X7	Y7	Z7	X8	Y8	Z8	X9	Y9	Z9	X10	Y10	Z10	X11	Y11	Z11	X12	Y12	Z12	X13	Y13	Z13	X14	Y14	Z14	X15	Y15	Z15	X16	Y16	Z16	X17	Y17	Z17	X18	Y18	Z18	X19	Y19	Z19	X20	Y20	Z20	X21	Y21	Z21	X22	Y22	Z22	X23	Y23	Z23	X24	Y24	Z24	X25	Y25	Z25	X26	Y26	Z26	X27	Y27	Z27	X28	Y28	Z28	X29	Y29	Z29	X30	Y30	Z30	X31	Y31	Z31	X32	Y32	Z32	X33	Y33	Z33	X34	Y34	Z34	X35	Y35	Z35	X36	Y36	Z36	X37	Y37	Z37	X38	Y38	Z38	X39	Y39	Z39	X40	Y40	Z40	X41	Y41	Z41	X42	Y42	Z42	X43	Y43	Z43	X44	Y44	Z44	X45	Y45	Z45	X46	Y46	Z46	X47	Y47	Z47	X48	Y48	Z48	X49	Y49	Z49	X50	Y50	Z50	X51	Y51	Z51	X52	Y52	Z52	X53	Y53	Z53	

472	4.71	-76.72586822509766	902.263671875	-367.6814575195312	-78.37246704101562	916.5159301757812	-226.7578277587891	-86.82938385009766	1014.824279785156	-297.41455078125	-365.8750915527344	1203.56640625	-319.0459594726562	-81.02485656738281	1140.6455078125	-285.1160888671875	-154.8937377929688	1406.58642578125	-305.1315307617188	-333.5718383789062	1317.594970703125	-317.9939270019531	-74.41928100585938	1284.831909179688	-383.0185546875	-135.4219818115234	1364.604614257812	-199.6294097900391	-250.0289916992188	1383.013793945312	-138.7589263916016	-259.7719116210938	1267.319580078125	-36.4146842956543	-300.7543029785156	1050.751586914062	-9.849075317382812	-208.1961517333984	1029.410766601562	-51.75769805908203	-398.7923583984375	869.7112426757812	-90.84194946289062	-367.5826416015625	842.1396484375	-27.6197624206543	-336.0865173339844	967.1784057617188	-13.20213890075684	-438.1227722167969	717.9417114257812	-94.66136169433594	-391.0961303710938	769.0508422851562	-35.85264587402344	-433.0961608886719	793.1077270507812	-90.48862457275391	-191.8803863525391	1369.9033203125	-471.9107971191406	-152.8142547607422	1313.043701171875	-539.393310546875	-101.2085876464844	1033.908081054688	-598.91650390625	-61.2064094543457	1018.842712402344	-545.6868286132812	-199.8846130371094	822.8357543945312	-584.0598754882812	-120.6892242431641	812.5696411132812	-624.0667724609375	-98.25790405273438	975.431884765625	-610.3836669921875	-202.2666168212891	673.8538818359375	-603.4786987304688	-205.6659698486328	725.766357421875	-599.3202514648438	-130.4462738037109	726.449462890625	-626.6676635742188	-266.9790649414062	1596.5048828125	-416.9782104492188	-420.6233825683594	1581.67041015625	-278.49658203125	-403.7788391113281	1580.727172851562	-408.5668334960938	-274.4674072265625	1606.203979492188	-239.9567718505859	-208.8202514648438	824.9866943359375	-104.5432281494141	-213.1287231445312	817.35009765625	-506.8270568847656	-306.0930786132812	873.3660278320312	-438.133056640625	-312.2019958496094	857.6260986328125	-181.28466796875	-145.6157379150391	411.2467956542969	-157.7642669677734	-202.0305938720703	559.4817504882812	-133.3708648681641	76.69779205322266	45.87493515014648	-161.3012237548828	-82.32505798339844	266.2851867675781	-148.6533355712891	-137.6796264648438	37.27878189086914	-277.0077819824219	-57.7199821472168	48.70606231689453	-285.0125427246094	-75.40717315673828	40.06024551391602	-172.4041290283203	131.3201141357422	61.58171844482422	-215.8792266845703	-415.9888916015625	476.5834045410156	-494.3072204589844	-306.3268127441406	709.8396606445312	-524.7284545898438	-599.52783203125	75.43047332763672	-515.5878295898438	-488.6436157226562	355.9610900878906	-513.3917236328125	-771.8397216796875	190.0605621337891	-457.0061645507812	-718.3599853515625	153.8888244628906	-422.3613891601562	-715.699462890625	134.6134948730469	-524.6439208984375	-538.558349609375	43.92985916137695	-474.6954650878906	
473	4.72	-87.81781005859375	899.9583740234375	-371.0125732421875	-88.32599639892578	914.9396362304688	-230.1985626220703	-96.91382598876953	1012.014587402344	-300.6624145507812	-375.3814392089844	1201.3427734375	-320.7265625	-90.51353454589844	1137.800659179688	-288.4583435058594	-163.7065124511719	1403.869018554688	-308.1282043457031	-342.7947082519531	1315.267211914062	-320.0526733398438	-83.85808563232422	1281.693481445312	-386.0877685546875	-143.8521423339844	1362.031372070312	-202.6382598876953	-258.2021179199219	1380.72900390625	-141.228271484375	-267.4686889648438	1264.977294921875	-38.78384399414062	-308.3123474121094	1048.340576171875	-12.21019744873047	-215.8338470458984	1027.138061523438	-54.49300765991211	-406.4392700195312	867.0390625	-93.02445983886719	-374.7125854492188	839.5574951171875	-29.66859436035156	-343.4319152832031	964.6751098632812	-15.41768169403076	-445.11376953125	715.1171264648438	-96.42778778076172	-398.0672302246094	766.411865234375	-37.79075241088867	-440.2374267578125	790.2938842773438	-92.34730529785156	-201.5218658447266	1366.972045898438	-474.7017822265625	-162.7066497802734	1309.883544921875	-542.1736450195312	-111.0335540771484	1030.692016601562	-600.9022827148438	-71.00376892089844	1016.153442382812	-547.6093139648438	-207.1237945556641	818.4652099609375	-585.5773315429688	-127.7297592163086	809.1213989257812	-625.5232543945312	-107.3729782104492	972.217041015625	-612.2314453125	-208.2822418212891	670.2380981445312	-604.889404296875	-211.2508544921875	721.1030883789062	-600.4996948242188	-136.4282989501953	722.8432006835938	-627.9732055664062	-275.1253662109375	1593.976318359375	-419.8279113769531	-428.7333374023438	1579.99365234375	-281.1716613769531	-411.9996643066406	1578.802001953125	-411.2864685058594	-282.4290466308594	1603.954956054688	-242.8157348632812	-217.2901306152344	823.6791381835938	-106.3640518188477	-224.7987670898438	813.98779296875	-508.7737121582031	-317.717529296875	869.8082275390625	-439.6593933105469	-321.5503234863281	855.3547973632812	-182.3341674804688	-150.9405212402344	410.3371276855469	-157.7957763671875	-208.6196136474609	558.2738037109375	-133.7777557373047	76.33003997802734	47.33969879150391	-161.0401306152344	-85.52552795410156	266.1977233886719	-148.3536682128906	-137.7690277099609	37.27719879150391	-276.907470703125	-58.09781646728516	49.12464904785156	-284.6383361816406	-75.57673645019531	39.86823654174805	-172.1262969970703	130.7059326171875	64.14031219482422	-215.5416412353516	-424.0034790039062	471.7459716796875	-495.0026550292969	-315.5562133789062	705.0672607421875	-525.8796997070312	-609.5025024414062	71.05934143066406	-514.3525390625	-496.8381042480469	351.220703125	-513.7106323242188	-781.371337890625	188.0109558105469	-458.4595336914062	-728.5489501953125	151.6452178955078	-422.9705810546875	-725.0443725585938	131.3020629882812	-525.11767578125	-549.144775390625	39.60364151000977	-472.5660705566406	
474	4.73	-99.17338562011719	897.772216796875	-374.4725646972656	-98.58320617675781	913.475830078125	-233.7869720458984	-107.3121719360352	1009.223754882812	-304.0440368652344	-385.1045532226562	1199.233764648438	-322.4956665039062	-100.2181777954102	1134.944213867188	-291.9418029785156	-172.6366577148438	1401.172241210938	-311.2572937011719	-352.18603515625	1313.024047851562	-322.1809387207031	-93.46591186523438	1278.562377929688	-389.298095703125	-152.3757476806641	1359.439331054688	-205.7926940917969	-266.4487915039062	1378.490478515625	-143.8253479003906	-275.2081604003906	1262.691772460938	-41.27951049804688	-315.8693542480469	1046.005737304688	-14.62913799285889	-223.4915008544922	1024.95654296875	-57.36622619628906	-414.0747985839844	864.4304809570312	-95.12477111816406	-381.7902221679688	837.0213012695312	-31.64625549316406	-350.750244140625	962.2374267578125	-17.6385440826416	-452.0157165527344	712.27197265625	-98.02912902832031	-404.9445495605469	763.7973022460938	-39.61724853515625	-447.3128356933594	787.4539184570312	-94.09645843505859	-211.3224639892578	1364.117553710938	-477.6158752441406	-172.7756500244141	1306.788818359375	-545.0763549804688	-121.0519256591797	1027.544677734375	-602.9322509765625	-81.04649353027344	1013.554870605469	-549.5568237304688	-214.4553527832031	814.0908203125	-587.160888671875	-134.8629913330078	805.7723999023438	-627.0150756835938	-116.6719207763672	969.1014404296875	-614.135009765625	-214.2883758544922	666.7008056640625	-606.3403930664062	-216.6616668701172	716.340576171875	-601.6666870117188	-142.4412536621094	719.3466186523438	-629.3292236328125	-283.3452453613281	1591.514770507812	-422.7538146972656	-436.8782043457031	1578.417114257812	-283.8710632324219	-420.3065185546875	1576.993041992188	-414.0354919433594	-290.4032287597656	1601.751220703125	-245.7575836181641	-226.0280914306641	822.412841796875	-108.3585586547852	-236.5749359130859	810.6329956054688	-510.8108825683594	-329.5521850585938	866.2252807617188	-441.2913513183594	-331.1733703613281	853.1275024414062	-183.5439453125	-156.4732513427734	409.4928894042969	-157.8799438476562	-215.4408264160156	557.1041870117188	-134.2826995849609	75.87930297851562	49.03065490722656	-160.6982116699219	-88.88165283203125	266.2377624511719	-148.0565032958984	-137.8661041259766	37.27322006225586	-276.8014221191406	-58.49799728393555	49.56656265258789	-284.2470703125	-75.80302429199219	39.69261169433594	-171.8547515869141	129.9906463623047	66.98366546630859	-215.103271484375	-432.2061462402344	466.8912963867188	-495.6373596191406	-325.367919921875	700.6046142578125	-527.201416015625	-617.6885986328125	66.0330810546875	-513.1058349609375	-504.7743225097656	346.1143798828125	-513.9586791992188	-789.9811401367188	184.1359558105469	-460.3205871582031	-737.6676025390625	147.9483337402344	-423.8499755859375	-732.9873657226562	126.5262069702148	-525.814208984375	-557.8932495117188	35.06459045410156	-470.2793273925781	
475	4.74	-110.7825164794922	895.7040405273438	-378.0443420410156	-109.1481552124023	912.1056518554688	-237.497802734375	-118.0315551757812	1006.452697753906	-307.5448913574219	-395.0441284179688	1197.255737304688	-324.3582763671875	-110.1404342651367	1132.087158203125	-295.5580139160156	-181.6850128173828	1398.509765625	-314.5270690917969	-361.7458801269531	1310.884033203125	-324.383056640625	-103.2460556030273	1275.450439453125	-392.6632690429688	-160.9863739013672	1356.839965820312	-209.0996398925781	-274.7578125	1376.311767578125	-146.5596313476562	-282.9875183105469	1260.4755859375	-43.91547012329102	-323.41552734375	1043.759033203125	-17.10513114929199	-231.1725921630859	1022.874450683594	-60.37942123413086	-421.6721496582031	861.8818359375	-97.1162109375	-388.8147583007812	834.5498657226562	-33.54225540161133	-358.0369873046875	959.8777465820312	-19.86219596862793	-458.8310852050781	709.423095703125	-99.44673156738281	-411.7229614257812	761.2254028320312	-41.32247924804688	-454.3235473632812	784.6030883789062	-95.71994018554688	-221.2843933105469	1361.352416992188	-480.6616821289062	-183.0263061523438	1303.775512695312	-548.1131591796875	-131.2645416259766	1024.479125976562	-605.0252685546875	-91.32427215576172	1011.057373046875	-551.5448608398438	-221.9163513183594	809.7578125	-588.8125610351562	-142.1205444335938	802.5466918945312	-628.5472412109375	-126.1605072021484	966.0972900390625	-616.1041259765625	-220.3187713623047	663.2819213867188	-607.8326416015625	-221.9303588867188	711.5072021484375	-602.806396484375	-148.5076293945312	715.989990234375	-630.7208862304688	-291.6492614746094	1589.1376953125	-425.7569580078125	-445.0575256347656	1576.957275390625	-286.5958251953125	-428.7030334472656	1575.3154296875	-416.8131103515625	-298.3883361816406	1599.607788085938	-248.7829284667969	-235.0582275390625	821.1744384765625	-110.5104904174805	-248.4612884521484	807.3242797851562	-512.9317016601562	-341.6044311523438	862.6683959960938	-443.0286560058594	-341.0920104980469	850.9588623046875	-184.9209899902344	-162.2349548339844	408.7089233398438	-158.0449066162109	-222.5215454101562	555.9607543945312	-134.9106292724609	75.32012939453125	50.96681594848633	-160.2711334228516	-92.41873168945312	266.4034118652344	-147.7817993164062	-137.966796875	37.26607513427734	-276.7002563476562	-58.92061996459961	50.03262329101562	-283.8433532714844	-76.08603668212891	39.53848648071289	-171.598876953125	129.1555633544922	70.12406158447266	-214.5651397705078	-440.6339416503906	462.073974609375	-496.22314453125	-335.6802368164062	696.4341430664062	-528.6544799804688	-624.2415771484375	60.56211090087891	-511.9178771972656	-512.5454711914062	340.763427734375	-514.1398315429688	-797.8939208984375	178.3434295654297	-462.4501647949219	-745.87158203125	142.7805480957031	-424.9154968261719	-739.7301025390625	120.3286437988281	-526.6616821289062	-564.8756713867188	30.63659286499023	-467.9723815917969	
